<mxfile host="app.diagrams.net" agent="Mozilla/5.0 (Windows NT 10.0; Win64; x64) AppleWebKit/537.36 (KHTML, like Gecko) Chrome/126.0.0.0 Safari/537.36" version="24.7.6">
  <diagram name="Page-1" id="bYYNymFKkdQhC7biwxIp">
    <mxGraphModel dx="880" dy="426" grid="1" gridSize="10" guides="1" tooltips="1" connect="1" arrows="1" fold="1" page="1" pageScale="1" pageWidth="850" pageHeight="1100" math="0" shadow="0">
      <root>
        <mxCell id="0" />
        <mxCell id="1" parent="0" />
        <mxCell id="7WuwZuxa4U-ELCvpxHV4-1" value="Merge PR to V1.2 or V2.0" style="whiteSpace=wrap;strokeWidth=2;fillColor=#d5e8d4;strokeColor=#82b366;" vertex="1" parent="1">
          <mxGeometry x="421" y="20" width="196" height="34" as="geometry" />
        </mxCell>
        <mxCell id="7WuwZuxa4U-ELCvpxHV4-2" value="Pass Checks" style="rhombus;strokeWidth=2;whiteSpace=wrap;fillColor=#ffe6cc;strokeColor=#d79b00;" vertex="1" parent="1">
          <mxGeometry x="452" y="104" width="133" height="133" as="geometry" />
        </mxCell>
        <mxCell id="7WuwZuxa4U-ELCvpxHV4-3" value="C" style="whiteSpace=wrap;strokeWidth=2;" vertex="1" parent="1">
          <mxGeometry x="506" y="306" width="25" height="34" as="geometry" />
        </mxCell>
        <mxCell id="7WuwZuxa4U-ELCvpxHV4-4" value="CI-Base Pipeline Run" style="whiteSpace=wrap;strokeWidth=2;" vertex="1" parent="1">
          <mxGeometry x="169" y="409" width="161" height="34" as="geometry" />
        </mxCell>
        <mxCell id="7WuwZuxa4U-ELCvpxHV4-5" value="CI-Base Pipeline Run" style="whiteSpace=wrap;strokeWidth=2;" vertex="1" parent="1">
          <mxGeometry x="695" y="409" width="161" height="34" as="geometry" />
        </mxCell>
        <mxCell id="7WuwZuxa4U-ELCvpxHV4-6" value="Build Image &amp;amp; Save Artifact Tagged N. to GHCR" style="whiteSpace=wrap;strokeWidth=2;" vertex="1" parent="1">
          <mxGeometry x="56" y="493" width="388" height="34" as="geometry" />
        </mxCell>
        <mxCell id="7WuwZuxa4U-ELCvpxHV4-7" value="Trigger CD Pipeline &amp;amp; Deploy in Dev Environment with N." style="whiteSpace=wrap;strokeWidth=2;fillColor=#dae8fc;strokeColor=#6c8ebf;" vertex="1" parent="1">
          <mxGeometry x="20" y="577" width="459" height="34" as="geometry" />
        </mxCell>
        <mxCell id="7WuwZuxa4U-ELCvpxHV4-8" value="Build Image &amp;amp; Save Artifact Tagged N+1. to GHCR" style="whiteSpace=wrap;strokeWidth=2;" vertex="1" parent="1">
          <mxGeometry x="573" y="493" width="405" height="34" as="geometry" />
        </mxCell>
        <mxCell id="7WuwZuxa4U-ELCvpxHV4-9" value="Trigger CD Pipeline &amp;amp; Deploy in Dev02 Environment with N+1." style="whiteSpace=wrap;strokeWidth=2;fillColor=#dae8fc;strokeColor=#6c8ebf;" vertex="1" parent="1">
          <mxGeometry x="529" y="577" width="493" height="34" as="geometry" />
        </mxCell>
        <mxCell id="7WuwZuxa4U-ELCvpxHV4-10" value="Functional Testing by Dev Lead" style="whiteSpace=wrap;strokeWidth=2;fillColor=#ffe6cc;strokeColor=#d79b00;" vertex="1" parent="1">
          <mxGeometry x="131" y="661" width="237" height="34" as="geometry" />
        </mxCell>
        <mxCell id="7WuwZuxa4U-ELCvpxHV4-11" value="Functional Testing by Dev Lead" style="whiteSpace=wrap;strokeWidth=2;fillColor=#ffe6cc;strokeColor=#d79b00;" vertex="1" parent="1">
          <mxGeometry x="657" y="661" width="237" height="34" as="geometry" />
        </mxCell>
        <mxCell id="7WuwZuxa4U-ELCvpxHV4-12" value="Create Jira Ticket with PR Number for QA/QA02 Deployment" style="whiteSpace=wrap;strokeWidth=2;fillColor=#e1d5e7;strokeColor=#9673a6;" vertex="1" parent="1">
          <mxGeometry x="293" y="745" width="451" height="34" as="geometry" />
        </mxCell>
        <mxCell id="7WuwZuxa4U-ELCvpxHV4-13" value="Manually Trigger CD Pipeline for QA/QA02 Deployment" style="whiteSpace=wrap;strokeWidth=2;fillColor=#dae8fc;strokeColor=#6c8ebf;" vertex="1" parent="1">
          <mxGeometry x="316" y="829" width="406" height="34" as="geometry" />
        </mxCell>
        <mxCell id="7WuwZuxa4U-ELCvpxHV4-14" value="Dev Lead Approves Deployment in Pipeline" style="whiteSpace=wrap;strokeWidth=2;fillColor=#e1d5e7;strokeColor=#9673a6;" vertex="1" parent="1">
          <mxGeometry x="359" y="913" width="320" height="34" as="geometry" />
        </mxCell>
        <mxCell id="7WuwZuxa4U-ELCvpxHV4-15" value="QA/QA02 Deployment" style="whiteSpace=wrap;strokeWidth=2;fillColor=#d5e8d4;strokeColor=#82b366;" vertex="1" parent="1">
          <mxGeometry x="433" y="997" width="172" height="34" as="geometry" />
        </mxCell>
        <mxCell id="7WuwZuxa4U-ELCvpxHV4-16" value="Functional Testing by QA" style="whiteSpace=wrap;strokeWidth=2;fillColor=#ffe6cc;strokeColor=#d79b00;" vertex="1" parent="1">
          <mxGeometry x="423" y="1081" width="192" height="34" as="geometry" />
        </mxCell>
        <mxCell id="7WuwZuxa4U-ELCvpxHV4-17" value="Raise Jira Request for UAT Deployment" style="whiteSpace=wrap;strokeWidth=2;fillColor=#e1d5e7;strokeColor=#9673a6;" vertex="1" parent="1">
          <mxGeometry x="371" y="1165" width="294" height="34" as="geometry" />
        </mxCell>
        <mxCell id="7WuwZuxa4U-ELCvpxHV4-18" value="Manually Trigger CD Pipeline for UAT Deployment" style="whiteSpace=wrap;strokeWidth=2;fillColor=#dae8fc;strokeColor=#6c8ebf;" vertex="1" parent="1">
          <mxGeometry x="335" y="1249" width="368" height="34" as="geometry" />
        </mxCell>
        <mxCell id="7WuwZuxa4U-ELCvpxHV4-19" value="QA Lead Approves Deployment in Pipeline" style="whiteSpace=wrap;strokeWidth=2;fillColor=#ffe6cc;strokeColor=#d79b00;" vertex="1" parent="1">
          <mxGeometry x="362" y="1333" width="313" height="34" as="geometry" />
        </mxCell>
        <mxCell id="7WuwZuxa4U-ELCvpxHV4-20" value="UAT Deployment" style="whiteSpace=wrap;strokeWidth=2;fillColor=#d5e8d4;strokeColor=#82b366;" vertex="1" parent="1">
          <mxGeometry x="452" y="1417" width="133" height="34" as="geometry" />
        </mxCell>
        <mxCell id="7WuwZuxa4U-ELCvpxHV4-21" value="Acceptance Testing by ATO" style="whiteSpace=wrap;strokeWidth=2;fillColor=#ffe6cc;strokeColor=#d79b00;" vertex="1" parent="1">
          <mxGeometry x="415" y="1501" width="207" height="34" as="geometry" />
        </mxCell>
        <mxCell id="7WuwZuxa4U-ELCvpxHV4-22" value="Release Manager Raises Jira Request with CAB Approval for Production Deployment" style="whiteSpace=wrap;strokeWidth=2;fillColor=#e1d5e7;strokeColor=#9673a6;" vertex="1" parent="1">
          <mxGeometry x="213" y="1585" width="611" height="34" as="geometry" />
        </mxCell>
        <mxCell id="7WuwZuxa4U-ELCvpxHV4-23" value="Trigger CD Pipeline for Production Deployment" style="whiteSpace=wrap;strokeWidth=2;fillColor=#dae8fc;strokeColor=#6c8ebf;" vertex="1" parent="1">
          <mxGeometry x="344" y="1669" width="350" height="34" as="geometry" />
        </mxCell>
        <mxCell id="7WuwZuxa4U-ELCvpxHV4-24" value="Prod Approver Group Member Approves Deployment" style="whiteSpace=wrap;strokeWidth=2;fillColor=#ffe6cc;strokeColor=#d79b00;" vertex="1" parent="1">
          <mxGeometry x="326" y="1753" width="386" height="34" as="geometry" />
        </mxCell>
        <mxCell id="7WuwZuxa4U-ELCvpxHV4-25" value="Production Deployment" style="whiteSpace=wrap;strokeWidth=2;fillColor=#d5e8d4;strokeColor=#82b366;" vertex="1" parent="1">
          <mxGeometry x="427" y="1837" width="183" height="34" as="geometry" />
        </mxCell>
        <mxCell id="7WuwZuxa4U-ELCvpxHV4-26" value="" style="curved=1;startArrow=none;endArrow=block;exitX=0.5;exitY=1;entryX=0.5;entryY=0;rounded=0;" edge="1" parent="1" source="7WuwZuxa4U-ELCvpxHV4-1" target="7WuwZuxa4U-ELCvpxHV4-2">
          <mxGeometry relative="1" as="geometry">
            <Array as="points" />
          </mxGeometry>
        </mxCell>
        <mxCell id="7WuwZuxa4U-ELCvpxHV4-27" value="Code Coverage" style="curved=1;startArrow=none;endArrow=block;exitX=0;exitY=0.87;entryX=0.01;entryY=0.38;rounded=0;" edge="1" parent="1" source="7WuwZuxa4U-ELCvpxHV4-2" target="7WuwZuxa4U-ELCvpxHV4-3">
          <mxGeometry relative="1" as="geometry">
            <Array as="points">
              <mxPoint x="379" y="272" />
            </Array>
          </mxGeometry>
        </mxCell>
        <mxCell id="7WuwZuxa4U-ELCvpxHV4-28" value="Fortify" style="curved=1;startArrow=none;endArrow=block;exitX=0.3;exitY=1;entryX=0.01;entryY=0.05;rounded=0;" edge="1" parent="1" source="7WuwZuxa4U-ELCvpxHV4-2" target="7WuwZuxa4U-ELCvpxHV4-3">
          <mxGeometry relative="1" as="geometry">
            <Array as="points">
              <mxPoint x="477" y="272" />
            </Array>
          </mxGeometry>
        </mxCell>
        <mxCell id="7WuwZuxa4U-ELCvpxHV4-29" value="Mend Scan" style="curved=1;startArrow=none;endArrow=block;exitX=0.71;exitY=1;entryX=1.01;entryY=0.05;rounded=0;" edge="1" parent="1" source="7WuwZuxa4U-ELCvpxHV4-2" target="7WuwZuxa4U-ELCvpxHV4-3">
          <mxGeometry relative="1" as="geometry">
            <Array as="points">
              <mxPoint x="560" y="272" />
            </Array>
          </mxGeometry>
        </mxCell>
        <mxCell id="7WuwZuxa4U-ELCvpxHV4-30" value="CodeQL" style="curved=1;startArrow=none;endArrow=block;exitX=1;exitY=0.9;entryX=1.01;entryY=0.36;rounded=0;" edge="1" parent="1" source="7WuwZuxa4U-ELCvpxHV4-2" target="7WuwZuxa4U-ELCvpxHV4-3">
          <mxGeometry relative="1" as="geometry">
            <Array as="points">
              <mxPoint x="646" y="272" />
            </Array>
          </mxGeometry>
        </mxCell>
        <mxCell id="7WuwZuxa4U-ELCvpxHV4-31" value="Branch N" style="curved=1;startArrow=none;endArrow=block;exitX=0.01;exitY=0.58;entryX=0.5;entryY=0.01;rounded=0;" edge="1" parent="1" source="7WuwZuxa4U-ELCvpxHV4-3" target="7WuwZuxa4U-ELCvpxHV4-4">
          <mxGeometry relative="1" as="geometry">
            <Array as="points">
              <mxPoint x="250" y="375" />
            </Array>
          </mxGeometry>
        </mxCell>
        <mxCell id="7WuwZuxa4U-ELCvpxHV4-32" value="Branch N+1" style="curved=1;startArrow=none;endArrow=block;exitX=1.01;exitY=0.58;entryX=0.5;entryY=0.01;rounded=0;" edge="1" parent="1" source="7WuwZuxa4U-ELCvpxHV4-3" target="7WuwZuxa4U-ELCvpxHV4-5">
          <mxGeometry relative="1" as="geometry">
            <Array as="points">
              <mxPoint x="776" y="375" />
            </Array>
          </mxGeometry>
        </mxCell>
        <mxCell id="7WuwZuxa4U-ELCvpxHV4-33" value="" style="curved=1;startArrow=none;endArrow=block;exitX=0.5;exitY=1.01;entryX=0.5;entryY=0.01;rounded=0;" edge="1" parent="1" source="7WuwZuxa4U-ELCvpxHV4-4" target="7WuwZuxa4U-ELCvpxHV4-6">
          <mxGeometry relative="1" as="geometry">
            <Array as="points" />
          </mxGeometry>
        </mxCell>
        <mxCell id="7WuwZuxa4U-ELCvpxHV4-34" value="" style="curved=1;startArrow=none;endArrow=block;exitX=0.5;exitY=1.01;entryX=0.5;entryY=0.01;rounded=0;" edge="1" parent="1" source="7WuwZuxa4U-ELCvpxHV4-6" target="7WuwZuxa4U-ELCvpxHV4-7">
          <mxGeometry relative="1" as="geometry">
            <Array as="points" />
          </mxGeometry>
        </mxCell>
        <mxCell id="7WuwZuxa4U-ELCvpxHV4-35" value="" style="curved=1;startArrow=none;endArrow=block;exitX=0.5;exitY=1.01;entryX=0.5;entryY=0.01;rounded=0;" edge="1" parent="1" source="7WuwZuxa4U-ELCvpxHV4-5" target="7WuwZuxa4U-ELCvpxHV4-8">
          <mxGeometry relative="1" as="geometry">
            <Array as="points" />
          </mxGeometry>
        </mxCell>
        <mxCell id="7WuwZuxa4U-ELCvpxHV4-36" value="" style="curved=1;startArrow=none;endArrow=block;exitX=0.5;exitY=1.01;entryX=0.5;entryY=0.01;rounded=0;" edge="1" parent="1" source="7WuwZuxa4U-ELCvpxHV4-8" target="7WuwZuxa4U-ELCvpxHV4-9">
          <mxGeometry relative="1" as="geometry">
            <Array as="points" />
          </mxGeometry>
        </mxCell>
        <mxCell id="7WuwZuxa4U-ELCvpxHV4-37" value="" style="curved=1;startArrow=none;endArrow=block;exitX=0.5;exitY=1.01;entryX=0.5;entryY=0.01;rounded=0;" edge="1" parent="1" source="7WuwZuxa4U-ELCvpxHV4-7" target="7WuwZuxa4U-ELCvpxHV4-10">
          <mxGeometry relative="1" as="geometry">
            <Array as="points" />
          </mxGeometry>
        </mxCell>
        <mxCell id="7WuwZuxa4U-ELCvpxHV4-38" value="" style="curved=1;startArrow=none;endArrow=block;exitX=0.5;exitY=1.01;entryX=0.5;entryY=0.01;rounded=0;" edge="1" parent="1" source="7WuwZuxa4U-ELCvpxHV4-9" target="7WuwZuxa4U-ELCvpxHV4-11">
          <mxGeometry relative="1" as="geometry">
            <Array as="points" />
          </mxGeometry>
        </mxCell>
        <mxCell id="7WuwZuxa4U-ELCvpxHV4-39" value="" style="curved=1;startArrow=none;endArrow=block;exitX=0.5;exitY=1.01;entryX=0.26;entryY=0.01;rounded=0;" edge="1" parent="1" source="7WuwZuxa4U-ELCvpxHV4-10" target="7WuwZuxa4U-ELCvpxHV4-12">
          <mxGeometry relative="1" as="geometry">
            <Array as="points">
              <mxPoint x="250" y="720" />
            </Array>
          </mxGeometry>
        </mxCell>
        <mxCell id="7WuwZuxa4U-ELCvpxHV4-40" value="" style="curved=1;startArrow=none;endArrow=block;exitX=0.5;exitY=1.01;entryX=0.73;entryY=0.01;rounded=0;" edge="1" parent="1" source="7WuwZuxa4U-ELCvpxHV4-11" target="7WuwZuxa4U-ELCvpxHV4-12">
          <mxGeometry relative="1" as="geometry">
            <Array as="points">
              <mxPoint x="776" y="720" />
            </Array>
          </mxGeometry>
        </mxCell>
        <mxCell id="7WuwZuxa4U-ELCvpxHV4-41" value="" style="curved=1;startArrow=none;endArrow=block;exitX=0.5;exitY=1.01;entryX=0.5;entryY=0.01;rounded=0;" edge="1" parent="1" source="7WuwZuxa4U-ELCvpxHV4-12" target="7WuwZuxa4U-ELCvpxHV4-13">
          <mxGeometry relative="1" as="geometry">
            <Array as="points" />
          </mxGeometry>
        </mxCell>
        <mxCell id="7WuwZuxa4U-ELCvpxHV4-42" value="" style="curved=1;startArrow=none;endArrow=block;exitX=0.5;exitY=1.01;entryX=0.5;entryY=0.01;rounded=0;" edge="1" parent="1" source="7WuwZuxa4U-ELCvpxHV4-13" target="7WuwZuxa4U-ELCvpxHV4-14">
          <mxGeometry relative="1" as="geometry">
            <Array as="points" />
          </mxGeometry>
        </mxCell>
        <mxCell id="7WuwZuxa4U-ELCvpxHV4-43" value="" style="curved=1;startArrow=none;endArrow=block;exitX=0.5;exitY=1.01;entryX=0.5;entryY=0.01;rounded=0;" edge="1" parent="1" source="7WuwZuxa4U-ELCvpxHV4-14" target="7WuwZuxa4U-ELCvpxHV4-15">
          <mxGeometry relative="1" as="geometry">
            <Array as="points" />
          </mxGeometry>
        </mxCell>
        <mxCell id="7WuwZuxa4U-ELCvpxHV4-44" value="" style="curved=1;startArrow=none;endArrow=block;exitX=0.5;exitY=1.01;entryX=0.5;entryY=0.01;rounded=0;" edge="1" parent="1" source="7WuwZuxa4U-ELCvpxHV4-15" target="7WuwZuxa4U-ELCvpxHV4-16">
          <mxGeometry relative="1" as="geometry">
            <Array as="points" />
          </mxGeometry>
        </mxCell>
        <mxCell id="7WuwZuxa4U-ELCvpxHV4-45" value="" style="curved=1;startArrow=none;endArrow=block;exitX=0.5;exitY=1.01;entryX=0.5;entryY=0.01;rounded=0;" edge="1" parent="1" source="7WuwZuxa4U-ELCvpxHV4-16" target="7WuwZuxa4U-ELCvpxHV4-17">
          <mxGeometry relative="1" as="geometry">
            <Array as="points" />
          </mxGeometry>
        </mxCell>
        <mxCell id="7WuwZuxa4U-ELCvpxHV4-46" value="" style="curved=1;startArrow=none;endArrow=block;exitX=0.5;exitY=1.01;entryX=0.5;entryY=0.01;rounded=0;" edge="1" parent="1" source="7WuwZuxa4U-ELCvpxHV4-17" target="7WuwZuxa4U-ELCvpxHV4-18">
          <mxGeometry relative="1" as="geometry">
            <Array as="points" />
          </mxGeometry>
        </mxCell>
        <mxCell id="7WuwZuxa4U-ELCvpxHV4-47" value="" style="curved=1;startArrow=none;endArrow=block;exitX=0.5;exitY=1.01;entryX=0.5;entryY=0.01;rounded=0;" edge="1" parent="1" source="7WuwZuxa4U-ELCvpxHV4-18" target="7WuwZuxa4U-ELCvpxHV4-19">
          <mxGeometry relative="1" as="geometry">
            <Array as="points" />
          </mxGeometry>
        </mxCell>
        <mxCell id="7WuwZuxa4U-ELCvpxHV4-48" value="" style="curved=1;startArrow=none;endArrow=block;exitX=0.5;exitY=1.01;entryX=0.5;entryY=0.01;rounded=0;" edge="1" parent="1" source="7WuwZuxa4U-ELCvpxHV4-19" target="7WuwZuxa4U-ELCvpxHV4-20">
          <mxGeometry relative="1" as="geometry">
            <Array as="points" />
          </mxGeometry>
        </mxCell>
        <mxCell id="7WuwZuxa4U-ELCvpxHV4-49" value="" style="curved=1;startArrow=none;endArrow=block;exitX=0.5;exitY=1.01;entryX=0.5;entryY=0.01;rounded=0;" edge="1" parent="1" source="7WuwZuxa4U-ELCvpxHV4-20" target="7WuwZuxa4U-ELCvpxHV4-21">
          <mxGeometry relative="1" as="geometry">
            <Array as="points" />
          </mxGeometry>
        </mxCell>
        <mxCell id="7WuwZuxa4U-ELCvpxHV4-50" value="" style="curved=1;startArrow=none;endArrow=block;exitX=0.5;exitY=1.01;entryX=0.5;entryY=0.01;rounded=0;" edge="1" parent="1" source="7WuwZuxa4U-ELCvpxHV4-21" target="7WuwZuxa4U-ELCvpxHV4-22">
          <mxGeometry relative="1" as="geometry">
            <Array as="points" />
          </mxGeometry>
        </mxCell>
        <mxCell id="7WuwZuxa4U-ELCvpxHV4-51" value="" style="curved=1;startArrow=none;endArrow=block;exitX=0.5;exitY=1.01;entryX=0.5;entryY=0.01;rounded=0;" edge="1" parent="1" source="7WuwZuxa4U-ELCvpxHV4-22" target="7WuwZuxa4U-ELCvpxHV4-23">
          <mxGeometry relative="1" as="geometry">
            <Array as="points" />
          </mxGeometry>
        </mxCell>
        <mxCell id="7WuwZuxa4U-ELCvpxHV4-52" value="" style="curved=1;startArrow=none;endArrow=block;exitX=0.5;exitY=1.01;entryX=0.5;entryY=0.01;rounded=0;" edge="1" parent="1" source="7WuwZuxa4U-ELCvpxHV4-23" target="7WuwZuxa4U-ELCvpxHV4-24">
          <mxGeometry relative="1" as="geometry">
            <Array as="points" />
          </mxGeometry>
        </mxCell>
        <mxCell id="7WuwZuxa4U-ELCvpxHV4-53" value="" style="curved=1;startArrow=none;endArrow=block;exitX=0.5;exitY=1.01;entryX=0.5;entryY=0.01;rounded=0;" edge="1" parent="1" source="7WuwZuxa4U-ELCvpxHV4-24" target="7WuwZuxa4U-ELCvpxHV4-25">
          <mxGeometry relative="1" as="geometry">
            <Array as="points" />
          </mxGeometry>
        </mxCell>
      </root>
    </mxGraphModel>
  </diagram>
</mxfile>
